<svg class="icon" viewBox="0 0 1024 1024" xmlns="http://www.w3.org/2000/svg" width="200" height="200"><path d="M918.63 753.25l-55.298-58.576-4.211-25.905-5.524-33.974-33.546-7.709-19.256-4.423-3.113-19.023-5.563-33.993-33.584-7.658-19.217-4.382-3.14-18.52-6.036-35.578-35.537-6.278-21.236-3.752-75.032-79.48c32.654-52.535 47.953-107.56 44.347-159.992l-.004-.058-.004-.058c-1.697-23.876-7.226-46.692-16.43-67.814-9.248-21.221-22.25-40.83-38.642-58.282l-.06-.063-.06-.064c-19.894-21.033-44.5-36.599-73.135-46.262-21.923-7.384-45.827-11.124-71.077-11.124a263.3 263.3 0 0 0-17.91.619c-76.026 5.07-156.575 42.952-221 103.934-39.253 36.909-70.916 81.039-91.567 127.623-20.392 46-29.51 92.811-26.37 135.388 1.605 22.497 6.4 43.635 14.25 62.827 8.234 20.123 19.867 38.256 34.58 53.895l.107.111.106.112c39.807 41.8 92.027 63.895 151.014 63.895 5.16 0 10.436-.17 15.683-.508l.114-.008.113-.008c39.26-2.7 78.935-14.893 118.14-36.284L740.814 921.12l15.93 16.872 23.189-.856 93.364-3.448 44.341-1.637 4.684-44.123 9.992-94.127 2.486-23.424-16.17-17.128zM778.043 885.97l-348.36-368.98-21.944 13.214c-38.147 22.954-75.208 34.565-108.86 36.879-4.183.27-8.322.403-12.399.403-45.357 0-83.99-16.556-113.937-48.004-20.983-22.301-32.615-51.119-35.05-85.303-5.015-67.475 29.958-154.409 102.033-222.132 58.734-55.607 128.894-86.036 189.243-90.061 4.905-.338 9.744-.505 14.503-.505 19.779 0 38.228 2.886 54.703 8.436 20.486 6.914 37.96 17.761 52.31 32.933 24.88 26.486 38.743 58.44 41.319 94.67 2.91 42.307-10.18 91.03-44.12 140.75l-14.444 21.146L647.773 540.95l37.925 6.7 8.866 52.267 52.588 11.99 8.665 52.955 52.765 12.125 6.733 41.41 66.082 69.999-9.15 86.185-380.162-409.889-11.262 10.445 378.266 407.84-81.046 2.994z" fill="#fff"/><path d="M424.363 259.797c-6.713-7.372-14.907-12.863-23.916-16.459-9.012-3.601-18.83-5.33-28.944-5.33-12.71.001-25.902 2.723-38.743 7.989-12.84 5.269-25.335 13.091-36.62 23.375-12.467 11.365-22.082 24.476-28.607 38.188-6.52 13.715-9.967 28.043-9.971 41.877 0 8.648 1.356 17.106 4.19 25.029 2.831 7.918 7.153 15.296 12.984 21.69 6.713 7.373 14.908 12.863 23.916 16.459 9.012 3.601 18.83 5.33 28.943 5.332 12.71-.003 25.902-2.724 38.743-7.99 12.84-5.27 25.335-13.092 36.62-23.375 12.468-11.365 22.082-24.476 28.608-38.19 6.52-13.713 9.967-28.042 9.972-41.876 0-8.648-1.357-17.106-4.19-25.028-2.832-7.92-7.154-15.297-12.985-21.691zm-6.668 81.996c-5.638 11.856-14.06 23.39-25.084 33.434-9.976 9.092-20.968 15.95-32.104 20.518-11.136 4.571-22.407 6.844-32.913 6.84-8.366 0-16.236-1.433-23.244-4.234-7.012-2.806-13.168-6.957-18.262-12.54-4.418-4.853-7.682-10.402-9.874-16.52-2.189-6.116-3.292-12.808-3.293-19.854-.005-11.262 2.84-23.424 8.482-35.278 5.639-11.855 14.06-23.39 25.083-33.433 9.976-9.093 20.969-15.95 32.105-20.518 11.135-4.572 22.407-6.844 32.913-6.84 8.366 0 16.236 1.432 23.244 4.234 7.012 2.806 13.169 6.957 18.263 12.54 4.419 4.853 7.682 10.401 9.874 16.52 2.189 6.115 3.293 12.806 3.293 19.853.003 11.262-2.84 23.424-8.483 35.278z" fill="#fff"/></svg>